<svg width="35" height="35" viewBox="0 0 35 35" fill="none" xmlns="http://www.w3.org/2000/svg">
<path d="M17.5001 0C7.83516 0 0 7.86792 0 17.5733C0 26.2778 6.30913 33.4867 14.5814 34.8826V21.2395H10.3599V16.3299H14.5814V12.7098C14.5814 8.50939 17.1362 6.22042 20.8682 6.22042C22.6556 6.22042 24.1917 6.35416 24.6376 6.41307V10.8036L22.0492 10.8049C20.02 10.8049 19.6288 11.773 19.6288 13.194V16.3274H24.4706L23.8391 21.237H19.6288V35C28.2873 33.9418 35 26.5493 35 17.5682C35 7.86792 27.1648 0 17.5001 0Z" fill="#FFF7EA"/>
</svg>
