<svg width="239" height="34" viewBox="0 0 239 34" fill="none" xmlns="http://www.w3.org/2000/svg">
<g clip-path="url(#clip0_1198_101)">
<path d="M238.5 0H139.522L133.667 14.1667" stroke="#404040" stroke-width="2.83333" stroke-miterlimit="22.926"/>
<path d="M17.9521 25.3732H12.8923L20.7631 7.31069H13.6954L7.75224 20.8955C6.78848 23.1723 6.22628 24.766 6.06565 25.6009L0.524014 28.333C0.363387 27.0428 1.0059 24.6902 2.53186 21.275L10.4829 2.98479H27.67L17.9521 25.3732ZM45.1784 9.20801C46.0619 7.23479 45.9815 5.64104 45.0981 4.57854C44.295 3.51604 42.769 3.06069 40.6808 3.06069H31.9266L28.955 7.31069H38.1108C38.9139 7.31069 39.4761 7.53837 39.7974 7.91783C40.1186 8.29729 40.1186 8.90444 39.7974 9.66337C38.9943 11.4848 36.1833 13.3821 31.2841 15.4312L34.4164 8.2214H29.4369L21.9678 25.3732H26.9472L29.196 20.2125C38.0305 17.1768 43.3312 13.5339 45.1784 9.20801ZM65.4978 11.333C63.9718 14.7482 61.8836 17.8598 59.153 20.7437C55.7798 24.2348 52.4869 25.9803 49.3547 25.9803C46.1422 25.9803 44.3753 24.2348 44.054 20.8196C43.7328 18.0116 44.3753 14.8241 45.8209 11.4089C47.1862 8.2214 49.0335 6.02051 51.3625 4.65444C53.4507 3.44015 56.1814 2.83301 59.4742 2.83301C62.7671 2.83301 64.9356 3.44015 65.9796 4.65444C67.0237 5.94461 66.8631 8.14551 65.4978 11.333ZM60.1167 11.8643C60.8396 10.1946 61.0002 8.98033 60.5986 8.2214C60.1971 7.46247 59.153 7.08301 57.4664 7.08301C54.2538 7.08301 52.0051 8.60087 50.7201 11.7125C49.9169 13.6098 49.3547 15.583 49.1941 17.6321C48.9531 20.2884 49.5956 21.6544 51.2019 21.6544C52.7279 21.6544 54.5751 20.3643 56.5829 17.7839C58.1089 15.7348 59.3136 13.7616 60.1167 11.8643ZM94.1697 10.4982C95.0532 8.52497 94.8122 7.00712 93.5272 6.0964C92.4831 5.33747 90.8769 4.88212 88.7084 4.88212H85.5762L86.4596 2.9089H81.6408L80.7574 4.88212C77.3842 4.88212 74.8945 5.10979 73.4488 5.48926C70.4772 6.24819 68.4694 7.91783 67.345 10.4982C65.4174 14.9759 67.345 18.8464 73.2882 22.1098L71.8425 25.4491H76.6614L78.107 22.1098C86.8612 18.7705 92.2422 14.9 94.1697 10.4982ZM88.7084 11.1812C88.2265 12.2437 87.0218 13.3821 84.9337 14.7482C83.1668 15.8866 81.6408 16.7214 80.1952 17.2527L83.8093 8.98033H86.6202C88.6281 8.98033 89.3509 9.66337 88.7084 11.1812ZM75.3763 17.2527C74.4126 16.7214 73.5291 15.8866 72.8063 14.7482C71.9229 13.3821 71.6819 12.1678 72.1638 11.1812C72.8063 9.73926 74.1716 8.98033 76.2598 8.98033H78.9905L75.3763 17.2527ZM95.6154 25.3732H90.395L100.113 2.98479H105.333L95.6154 25.3732Z" fill="#E61F4C"/>
<path d="M142.637 5.75008H149.524L142.717 23.6142H147.442L154.249 5.75008H161.137L154.329 23.5311H156.572L153.128 32.6709L146.801 34.0003L148.483 29.5135H133.667L142.637 5.75008ZM156.812 29.5135H170.587L174.031 23.5311H165.862L167.143 20.1245H172.429L175.712 14.4744H169.306L170.427 11.6494H177.394L180.838 5.66699H165.862L156.812 29.5135ZM174.591 29.5135L183.641 5.75008H190.528L187.325 14.2252H192.05L195.254 5.75008H202.141L193.091 29.5135H186.204L189.728 20.1245H185.002L181.479 29.5135H174.591ZM207.427 29.5135L214.234 11.6494H218.399L221.842 5.66699H205.425L201.981 11.6494H207.347L200.539 29.5135H207.427ZM215.035 29.5135L224.085 5.75008H232.013C233.455 5.75008 234.656 5.99935 235.617 6.41479C236.578 6.83024 237.299 7.49495 237.78 8.24275C238.26 9.07364 238.5 9.98762 238.5 11.0678C238.5 12.1479 238.26 13.3943 237.78 14.6406C237.299 15.8869 236.738 17.0502 235.938 18.1303C235.217 19.2105 234.336 20.2076 233.295 20.9554C232.254 21.7862 231.132 22.3679 229.771 22.8664C228.49 23.3649 226.968 23.5311 225.366 23.5311H224.085L221.842 29.5135H215.035ZM228.57 11.6494L226.327 17.6318H227.368C228.169 17.6318 228.81 17.3825 229.451 16.9671C230.091 16.4686 230.572 15.7208 230.972 14.7237C231.373 13.6435 231.453 12.8126 231.212 12.3972C230.972 11.9818 230.412 11.7325 229.691 11.7325L228.57 11.6494Z" fill="#5D74F2"/>
<path d="M0.5 31.1667H99.7444L105.333 17" stroke="#404040" stroke-width="2.83333" stroke-miterlimit="22.926"/>
<path d="M127.251 19.8337L113.834 10.3618L119.018 7.97319L124.125 5.66699L127.48 7.97319L130.834 10.3618L129.004 15.0565L127.251 19.8337Z" fill="#5D74F2"/>
<path d="M111.75 11.333L125.167 20.8049L119.983 23.1935L114.876 25.4997L111.521 23.1935L108.167 20.8049L109.92 16.1101L111.75 11.333Z" fill="#E61F4C"/>
</g>
<defs>
<clipPath id="clip0_1198_101">
<rect width="238" height="34" fill="white" transform="translate(0.5)"/>
</clipPath>
</defs>
</svg>
